<svg xmlns="http://www.w3.org/2000/svg" xmlns:xlink="http://www.w3.org/1999/xlink" version="1.1" x="0px" y="0px" viewBox="0 0 100 125" enable-background="new 0 0 100 100" xml:space="preserve"><g><path d="M52.335,14.359c-4.587,0-8.284,3.598-8.284,8.095c0,4.47,3.697,8.151,8.284,8.151c4.56,0,8.313-3.682,8.313-8.151   C60.647,17.957,56.895,14.359,52.335,14.359L52.335,14.359z M52.335,15.905c3.698,0,6.7,2.923,6.7,6.549s-3.002,6.605-6.7,6.605   c-3.725,0-6.699-2.979-6.699-6.605S48.61,15.905,52.335,15.905L52.335,15.905z M52.335,16.776c-3.169,0-5.782,2.53-5.782,5.678   c0,0.422,0.39,0.815,0.806,0.815c0.39,0,0.779-0.394,0.779-0.815c0-2.276,1.834-4.104,4.197-4.104   c0.39,0.028,0.778-0.365,0.778-0.787C53.113,17.143,52.725,16.776,52.335,16.776L52.335,16.776z M37.823,38.082   c-4.559,0-8.229,3.598-8.229,8.096c0,4.469,3.67,8.151,8.229,8.151c4.588,0,8.313-3.683,8.313-8.151   C46.136,41.68,42.411,38.082,37.823,38.082L37.823,38.082z M37.823,39.628c3.726,0,6.729,2.924,6.729,6.55   c0,3.625-3.003,6.605-6.729,6.605c-3.697,0-6.672-2.98-6.672-6.605C31.151,42.552,34.126,39.628,37.823,39.628L37.823,39.628z    M37.851,40.5c-3.168,0-5.781,2.558-5.781,5.705c0,0.422,0.361,0.787,0.777,0.787c0.418,0,0.807-0.365,0.807-0.787   c0-2.276,1.863-4.132,4.197-4.132c0.418,0.028,0.807-0.365,0.807-0.787C38.657,40.865,38.269,40.5,37.851,40.5L37.851,40.5z    M58.284,61.777c-6.699,0-12.148,5.368-12.148,11.945s5.449,11.918,12.148,11.918c6.7,0,12.121-5.341,12.121-11.918   S64.984,61.777,58.284,61.777L58.284,61.777z M58.284,63.352c5.839,0,10.509,4.638,10.509,10.371   c0,5.734-4.67,10.344-10.509,10.344c-5.838,0-10.508-4.609-10.508-10.344C47.776,67.989,52.446,63.352,58.284,63.352L58.284,63.352   z M58.284,65.487c-4.587,0-8.34,3.683-8.34,8.235c0,0.422,0.361,0.787,0.778,0.787s0.807-0.365,0.778-0.787   c0-3.653,3.003-6.661,6.783-6.661c0.417,0.028,0.779-0.365,0.779-0.787S58.701,65.487,58.284,65.487L58.284,65.487z"/></g></svg>
