<svg xmlns="http://www.w3.org/2000/svg" xmlns:xlink="http://www.w3.org/1999/xlink" version="1.1" x="0px" y="0px" viewBox="0 0 100 125" enable-background="new 0 0 100 100" xml:space="preserve"><g><path d="M76.096,22.836c2.086,0,3.783-1.697,3.783-3.782c0-2.086-1.697-3.784-3.783-3.784s-3.782,1.697-3.782,3.784   C72.313,21.14,74.01,22.836,76.096,22.836z M76.096,17.271c0.983,0,1.783,0.8,1.783,1.784c0,0.983-0.8,1.782-1.783,1.782   c-0.982,0-1.782-0.799-1.782-1.782C74.313,18.071,75.113,17.271,76.096,17.271z"/><path d="M91.246,20.233c-0.313-1.257-1.229-2.23-2.393-2.647c-0.027-0.145-0.07-0.288-0.144-0.425   c-2.416-4.516-7.098-7.322-12.217-7.322c-5.112,0-9.789,2.801-12.207,7.31c-0.062,0.114-0.101,0.234-0.13,0.354   c-1.305,0.349-2.355,1.368-2.695,2.731c-0.365,1.474,0.2,2.958,1.311,3.854c-0.079,0.183-0.124,0.384-0.124,0.596v10.379   c0,0.829,0.672,1.5,1.5,1.5s1.5-0.671,1.5-1.5V24.788c0.24-0.131,0.43-0.347,0.499-0.626l1.293-5.207   c0.078-0.314-0.008-0.635-0.204-0.874c1.961-3.239,5.445-5.242,9.258-5.242c3.75,0,7.181,1.938,9.161,5.081   c-0.321,0.238-0.483,0.64-0.385,1.036l1.293,5.207c0.095,0.38,0.403,0.651,0.777,0.726v10.175c0,0.829,0.672,1.5,1.5,1.5   s1.5-0.671,1.5-1.5V24.165c0-0.136-0.023-0.264-0.058-0.389c0.199-0.206,0.382-0.428,0.533-0.679   C91.338,22.231,91.49,21.213,91.246,20.233z M63.402,20.717c0.198-0.797,0.909-1.354,1.729-1.354c0.048,0,0.097,0.002,0.145,0.006   l-0.848,3.416C63.641,22.445,63.189,21.574,63.402,20.717z M89.103,22.065c-0.189,0.315-0.468,0.554-0.794,0.701   c-0.01,0.004-0.02,0.005-0.029,0.009l-0.846-3.408c0.845-0.075,1.661,0.503,1.871,1.349C89.42,21.178,89.349,21.657,89.103,22.065z   "/><path d="M70.918,28.081c-0.815,0.15-1.354,0.932-1.204,1.747c3.699,20.069,5.733,20.069,6.949,20.069c1.235,0,3.304,0,6.117-20.135   c0.115-0.82-0.457-1.579-1.277-1.693c-0.694-0.1-1.331,0.293-1.586,0.907c-0.47-1.566-1.919-2.714-3.638-2.714   c-1.749,0-3.227,1.188-3.666,2.8h-0.013C72.359,28.375,71.648,27.944,70.918,28.081z M74.479,30.062c0-0.993,0.808-1.8,1.8-1.8   c0.994,0,1.803,0.808,1.803,1.8c0,0.552,0.447,1,1,1h0.479c-0.853,5.7-2.027,11.757-2.948,14.593   c-1.047-2.811-2.496-8.868-3.609-14.593h0.477C74.032,31.062,74.479,30.614,74.479,30.062z"/><path d="M88.84,38.864c-0.828,0-1.5,0.671-1.5,1.5c0,13.76-5.614,24.978-15.404,30.777c-8.203,4.86-18.349,5.115-26.472,0.666   c-0.727-0.397-1.639-0.133-2.036,0.595c-0.398,0.727-0.132,1.639,0.595,2.036c4.308,2.36,9.121,3.534,13.967,3.534   c5.331,0,10.701-1.422,15.476-4.25C84.189,67.369,90.34,55.211,90.34,40.364C90.34,39.536,89.668,38.864,88.84,38.864z"/><path d="M64.147,45.103c-0.828,0-1.5,0.671-1.5,1.5c0,11.363-4.856,17.631-14.848,19.165c-0.819,0.125-1.381,0.891-1.255,1.71   c0.114,0.742,0.752,1.272,1.48,1.272c0.076,0,0.152-0.006,0.229-0.018c11.541-1.771,17.393-9.216,17.393-22.129   C65.647,45.774,64.976,45.103,64.147,45.103z"/><path d="M47.878,77.423c-0.829,0-1.5,0.672-1.5,1.5v9.157H39.65c-0.829,0-1.5,0.672-1.5,1.5s0.671,1.5,1.5,1.5h8.229   c0.829,0,1.5-0.672,1.5-1.5V78.923C49.378,78.095,48.707,77.423,47.878,77.423z"/><path d="M56.611,88.08h-4.02c-0.828,0-1.5,0.672-1.5,1.5s0.672,1.5,1.5,1.5h4.02c0.828,0,1.5-0.672,1.5-1.5   S57.439,88.08,56.611,88.08z"/><path d="M84.378,88.08H77.83l-6.601-9.688c-0.466-0.684-1.397-0.862-2.084-0.395c-0.685,0.466-0.861,1.399-0.395,2.084   l7.042,10.335c0,0.001,0.001,0.002,0.002,0.003l0.003,0.005c0.003,0.005,0.008,0.008,0.011,0.012   c0.061,0.088,0.133,0.167,0.211,0.239c0.027,0.026,0.057,0.048,0.087,0.071c0.059,0.047,0.12,0.09,0.186,0.127   c0.033,0.02,0.065,0.039,0.101,0.056c0.072,0.034,0.146,0.061,0.225,0.083c0.029,0.009,0.058,0.021,0.088,0.027   c0.106,0.024,0.218,0.04,0.332,0.04h7.341c0.828,0,1.5-0.672,1.5-1.5S85.206,88.08,84.378,88.08z"/><path d="M40.383,72.175c0.256,0.171,0.545,0.252,0.831,0.252c0.485,0,0.96-0.234,1.25-0.668c0.459-0.689,0.273-1.62-0.416-2.08   c-0.069-0.046-6.967-4.666-11.117-9.192c-0.558-0.609-1.508-0.653-2.119-0.092c-0.611,0.56-0.652,1.509-0.092,2.119   c0.479,0.523,0.994,1.044,1.523,1.559l-20.207,5.405c-0.8,0.214-1.275,1.036-1.062,1.837c0.18,0.67,0.786,1.112,1.448,1.112   c0.128,0,0.259-0.017,0.389-0.051l22.073-5.904C36.542,69.599,40.172,72.034,40.383,72.175z"/><path d="M10.423,65.271c0.137,0,0.275-0.019,0.413-0.058l15.396-4.398c0.796-0.228,1.258-1.058,1.03-1.854   c-0.228-0.797-1.06-1.258-1.854-1.03l-15.396,4.398c-0.796,0.228-1.258,1.058-1.03,1.854C9.17,64.843,9.771,65.271,10.423,65.271z"/><path d="M10.423,57.973c0.138,0,0.278-0.019,0.417-0.059l53.986-15.612c0.796-0.23,1.254-1.062,1.024-1.857   c-0.231-0.797-1.064-1.256-1.858-1.024L10.007,55.031c-0.796,0.23-1.254,1.062-1.024,1.858   C9.173,57.546,9.772,57.973,10.423,57.973z"/></g></svg>
