<svg xmlns="http://www.w3.org/2000/svg" xmlns:xlink="http://www.w3.org/1999/xlink" viewBox="0 0 72 82.5" version="1.1" x="0px" y="0px"><title>sendmoney</title><desc>Created with Sketch.</desc><g stroke="none" stroke-width="1" fill="none" fill-rule="evenodd"><g transform="translate(-14.000000, -17.000000)" fill="#000000"><path d="M54.9246885,44.8711437 C51.1699881,45.8080219 46.9547498,46.3333333 42.5,46.3333333 C26.75375,46.3333333 14,39.77 14,31.6666667 C14,23.5633333 26.75375,17 42.5,17 C58.24625,17 71,23.5633333 71,31.6666667 C71,35.3765308 68.3268305,38.7636129 63.9171653,41.345882 C60.6459392,41.9065064 57.6008263,43.1292127 54.9246847,44.8711446 Z M44.0025482,64.6466575 C43.5049782,64.659942 43.0040221,64.6666667 42.5,64.6666667 C26.75375,64.6666667 14,58.1033333 14,50 L14,39 C14,47.1033333 26.75375,53.6666667 42.5,53.6666667 C44.0085782,53.6666667 45.4896891,53.6064238 46.9347489,53.4903554 C45.1166884,56.8107633 44.0608324,60.6079864 44.0025482,64.6466575 Z M51.3452164,82.2806077 C48.560986,82.747573 45.588039,83 42.5,83 C26.75375,83 14,76.4366667 14,68.3333333 L14,57.3333333 C14,65.4366667 26.75375,72 42.5,72 C43.3491317,72 44.1895612,71.9809138 45.0197577,71.943529 C46.2208452,75.9240369 48.4278576,79.468256 51.3452164,82.2806077 Z M68,83 C63.2261032,83 58.6477328,81.1035769 55.2720779,77.7279221 C51.8964231,74.3522672 50,69.7738968 50,65 C50,60.2261032 51.8964231,55.6477328 55.2720779,52.2720779 C58.6477328,48.8964231 63.2261032,47 68,47 C72.7738968,47 77.3522672,48.8964231 80.7279221,52.2720779 C84.1035769,55.6477328 86,60.2261032 86,65 C86,74.9411255 77.9411255,83 68,83 Z M77,68.6 L68,59.6 L59,68.6 L77,68.6 Z"/></g></g></svg>
