<svg xmlns="http://www.w3.org/2000/svg" xmlns:xlink="http://www.w3.org/1999/xlink" version="1.1" x="0px" y="0px" viewBox="0 0 226.8 283.5" style="enable-background:new 0 0 226.8 226.8;" xml:space="preserve"><path d="M160.5,102.5l0.2-3.1L133,36.6l-32.6-1.2l-11.2,8.3l-16-1.2l4,2.8l26.1,22.9l-34.9,35.5l0.6,64.2l11.3,7.7l-14.3,15  l37.3,0.6l0,0l0.4,0l4.4,0.1l-0.1,0l29.5,0.3l1.3,0L160.5,102.5z M137.9,187l-0.4,1l-14.9-10.2l8.2-6.8l-16.5-15.3l15.8-32.5  l-10.6-14.8l9.5-18.8l3-6l26.1,17.3L137.9,187z M120.6,136.7l-1.1-23.7l7.5,10.5L120.6,136.7z M121.5,175.3l-0.6-9.7l5.8,5.4  L121.5,175.3z M90,46.4l11.3-8.3l30,1.1l25.3,57.3l-40.9-28.2l-5-3.6l0,0l-1.4-1l-0.9-0.7l0,0L83,45.8L90,46.4z M106.2,65.1  l-1.1,0.9l-9-7.9L106.2,65.1z M72.2,187.9L82.6,177l16.7,11.4L72.2,187.9z M119.1,178.7l14.7,10l-29.5-0.3l-21.9-15l0,0l-10.5-7.2  l-0.6-61.7l37.4-37.9l5.5,3.8l15.8,11.5l-13.2,26.2v0l0,0.7l1.4,31.2l-6.7,15.4l-0.4,0.9l0.7,0.7l6.4,6.4l0.8,13.9L119.1,178.7  L119.1,178.7z"/></svg>
