<svg xmlns="http://www.w3.org/2000/svg" xmlns:xlink="http://www.w3.org/1999/xlink" version="1.1" x="0px" y="0px" viewBox="107.5 211.834 100 125" enable-background="new 107.5 211.834 100 100" xml:space="preserve"><path fill="#000000" d="M185.104,256.584c0.006-0.035,0.021-0.067,0.021-0.104v-8.451c0-0.027-0.013-0.051-0.016-0.077  c0.03-0.308-0.133-0.608-0.434-0.728l-15.724-6.188l-12.456-16.28c-0.156-0.205-0.414-0.31-0.665-0.271  c-0.255,0.037-0.469,0.21-0.561,0.45l-1.79,4.726l-2.903-2.142c-0.194-0.142-0.448-0.175-0.672-0.093  c-0.225,0.086-0.392,0.279-0.442,0.515l-2.121,9.884c-0.046,0.215,0.011,0.438,0.152,0.606l11.843,14.003l-1.579,2.062  c-0.164,0.214-0.192,0.504-0.072,0.746l3.535,7.124l-8.546,1.108c-0.166,0.021-0.319,0.102-0.433,0.226l-14.08,15.422  c-0.173,0.188-0.229,0.456-0.149,0.699l1.267,3.85l-8.954,3.52c-0.24,0.094-0.41,0.311-0.443,0.565  c-0.034,0.256,0.073,0.509,0.279,0.663l14.316,10.633c0.002,0.001,0.004,0.002,0.005,0.003c0.061,0.044,0.127,0.078,0.198,0.102  s0.146,0.035,0.219,0.035l0,0c0.001,0,0.001,0,0.001,0l22.145,0.001c0.233,0,0.451-0.115,0.583-0.307  c0.133-0.192,0.162-0.437,0.079-0.654l-1.384-3.633l5.787-2.595l2.444,6.721c0.103,0.283,0.372,0.467,0.666,0.467  c0.034,0,0.069-0.003,0.105-0.008c0.333-0.051,0.585-0.328,0.603-0.665l1.966-38.339l6.796-3.046c0.001,0,0.002-0.001,0.004-0.002  l0.012-0.005c0.026-0.012,0.043-0.033,0.066-0.048c0.055-0.032,0.109-0.063,0.152-0.108c0.03-0.031,0.048-0.07,0.071-0.106  c0.027-0.04,0.058-0.076,0.076-0.121C185.092,256.691,185.096,256.638,185.104,256.584z M177.549,258.781l-7.617-15.837  l13.775,5.421v7.655L177.549,258.781z M156.145,226.628l8.772,11.464l-10.251-7.559L156.145,226.628z M148.801,237.781l1.818-8.471  l2.753,2.03c0.013,0.01,0.025,0.02,0.039,0.029l14.098,10.395l-7.29,9.517L148.801,237.781z M168.371,242.969l7.81,16.239  l-13.494,2.923l-3.535-7.125L168.371,242.969z M139.723,285.017l3.806,11.562l-11.497-8.538L139.723,285.017z M165.818,293.271  l-5.494-14.428c-0.139-0.366-0.549-0.551-0.914-0.41c-0.366,0.139-0.55,0.549-0.41,0.914l7.017,18.426l-20.604-0.001l-5.925-18.002  l13.626-14.925l8.711-1.129l9.8,26.95L165.818,293.271z M174.692,294.954l-11.452-31.493l13.213-2.862L174.692,294.954z"/></svg>
