<svg xmlns="http://www.w3.org/2000/svg" xmlns:xlink="http://www.w3.org/1999/xlink" version="1.1" x="0px" y="0px" viewBox="0 0 120 150" style="enable-background:new 0 0 120 120;" xml:space="preserve"><g><path d="M109.1,52.2c-1-1.5-2.9-2.4-5.1-2.3c-1.9,0-3.9,0.7-5.7,2c-0.4,0.3-0.8,0.6-1.2,0.9c-2.2-7.3-8.6-13.5-17.2-17.3v-2.1   c0-5.4,4-9.9,9.2-10.8c0,0,0.1,0,0.1,0c0.8,1.9,2.6,3.2,4.8,3.2c2.9,0,5.2-2.3,5.2-5.2c0-2.9-2.3-5.2-5.2-5.2   c-2.1,0-3.9,1.3-4.8,3.1c-7.5,0.8-13.5,7.2-13.5,15v0.5c-4.8-1.6-10.1-2.5-15.8-2.5c-5.6,0-10.9,0.9-15.7,2.5v-0.5   c0-7.8-5.9-14.2-13.5-15c-0.8-1.8-2.6-3.1-4.7-3.1c-2.9,0-5.2,2.3-5.2,5.2c0,2.9,2.3,5.2,5.2,5.2c2.2,0,4-1.3,4.8-3.2   c0,0,0.1,0,0.1,0c5.2,0.8,9.2,5.3,9.2,10.8v2.1c-8.6,3.8-15,10-17.2,17.3c-0.4-0.3-0.8-0.6-1.2-0.9c-1.8-1.2-3.8-1.9-5.7-2   c-2.2,0-4.1,0.8-5.1,2.3c-1,1.5-1.2,3.6-0.3,5.6c0.7,1.8,2.1,3.4,3.9,4.6c1.9,1.3,4,2,5.9,2c0.9,0,1.7-0.2,2.5-0.5   c2.8,9.9,13.2,17.8,26.6,20.6c-5.6,3.5-9.3,9.7-9.3,16.8v1.3c0,1.1,0.9,2.1,2.1,2.1h35.6c1.1,0,2.1-0.9,2.1-2.1v-1.3   c0-7.1-3.7-13.3-9.3-16.8C84,81.8,94.3,73.8,97.2,64c0.7,0.3,1.6,0.4,2.5,0.4h0.2c1.9,0,3.9-0.7,5.7-2c1.8-1.2,3.2-2.9,3.9-4.6   C110.3,55.8,110.2,53.7,109.1,52.2z M94,19.4c0.6,0,1.1,0.5,1.1,1.1c0,0.6-0.5,1.1-1.1,1.1s-1.1-0.5-1.1-1.1   C92.9,19.9,93.4,19.4,94,19.4z M26,21.6c-0.6,0-1.1-0.5-1.1-1.1c0-0.6,0.5-1.1,1.1-1.1c0.6,0,1.1,0.5,1.1,1.1   C27.1,21.1,26.6,21.6,26,21.6z M21.9,59.7c-0.5,0.8-2.8,0.9-5.1-0.7c-1.1-0.8-2-1.8-2.4-2.8c-0.3-0.7-0.3-1.3-0.1-1.7   c0.2-0.3,0.8-0.5,1.5-0.5h0.1c1.1,0,2.4,0.5,3.5,1.3c1.1,0.8,2,1.8,2.4,2.8C22.1,58.8,22.1,59.4,21.9,59.7z M75.7,100.6H44.3   c0.4-8.3,7.3-14.9,15.7-14.9C68.4,85.6,75.3,92.3,75.7,100.6z M60,81.5c-18.6,0-33.8-10.3-33.8-23s15.2-23,33.8-23   s33.8,10.3,33.8,23S78.6,81.5,60,81.5z M105.6,56.2c-0.4,1-1.3,2-2.4,2.8c-1.1,0.8-2.4,1.2-3.5,1.3c-0.8,0-1.4-0.2-1.6-0.5   c-0.5-0.8,0.2-2.9,2.5-4.5c1.1-0.8,2.4-1.2,3.5-1.3c0.8,0,1.4,0.2,1.6,0.5C105.9,54.9,105.9,55.5,105.6,56.2z"/><path d="M56.2,70.5c-0.4,2.2-1.6,3.9-3.4,4.7c-0.7,0.3-1.5,0.5-2.3,0.5c-1.1,0-2.3-0.3-3.4-1c-1.8-1-3.3-2.8-4.3-4.9   c-1-2.1-1.3-4.4-1-6.5c0.4-2.2,1.6-3.9,3.4-4.7c1.8-0.8,3.8-0.6,5.8,0.5c1.8,1,3.3,2.8,4.3,4.9C56.2,66.1,56.5,68.4,56.2,70.5z"/><path d="M76.5,69.8c-1,2.1-2.5,3.9-4.3,4.9c-1.1,0.7-2.3,1-3.4,1c-0.8,0-1.6-0.2-2.3-0.5c-3.5-1.6-4.6-6.5-2.4-11.2   c1-2.1,2.5-3.9,4.3-4.9c2-1.1,4-1.3,5.8-0.5c1.8,0.8,3,2.5,3.4,4.7C77.8,65.4,77.5,67.7,76.5,69.8z"/></g></svg>
