<svg xmlns="http://www.w3.org/2000/svg" xmlns:xlink="http://www.w3.org/1999/xlink" version="1.1" x="0px" y="0px" viewBox="0 0 100 125" enable-background="new 0 0 100 100" xml:space="preserve"><path d="M69.039,6.115H48.877c-3.953,0-7.169,3.216-7.169,7.169v4.418c-4.064,0.15-6.723,6.57-13.184,22.217  c-0.785,1.9-1.627,3.939-2.535,6.12c-3.104,7.457-2.536,9.478-0.656,16.172c0.186,0.658,0.384,1.366,0.595,2.135  c2.248,8.188,3.285,19.878,0.534,27.532c-0.279,0.779,0.125,1.639,0.904,1.918c0.168,0.061,0.34,0.089,0.508,0.089  c0.615,0,1.191-0.381,1.412-0.993c3.176-8.837,1.734-21.328-0.466-29.341c-0.212-0.773-0.413-1.487-0.599-2.15  c-1.836-6.535-2.166-7.713,0.537-14.209c0.908-2.184,1.752-4.226,2.537-6.128c5.063-12.26,8.06-19.515,10.412-20.234v7.602  c-0.502,1.356-3.063,8.274-4.238,11.408c-2.242,5.979-2.371,12.376-0.375,16.494c-0.699,1.153-1.447,2.218-2.252,3.111  c-0.555,0.616-0.504,1.564,0.111,2.119c0.616,0.555,1.564,0.504,2.118-0.111c3.973-4.414,6.626-11.984,8.21-16.508  c0.535-1.524,1.039-2.965,1.295-3.391c0.654-1.093,1.83-1.314,2.635-1.168c0.41,0.072,1.387,0.365,1.604,1.51  c0.31,1.629-0.427,4.038-1.206,6.588c-0.836,2.734-1.782,5.834-1.736,8.904c0.025,1.665,0.248,3.678,0.484,5.809  c0.596,5.376,1.336,12.066-0.635,17.18c-1.928,5.005-6.051,5.729-6.215,5.755c-0.819,0.121-1.387,0.883-1.266,1.702  c0.109,0.746,0.75,1.282,1.482,1.282c0.072,0,0.146-0.005,0.22-0.016c0.063-0.009,0.491-0.079,1.134-0.287  c-0.196,0.974-0.461,2.063-0.823,3.06c-0.283,0.778,0.118,1.639,0.897,1.922c0.169,0.063,0.342,0.091,0.512,0.091  c0.613,0,1.188-0.378,1.41-0.987c0.787-2.164,1.188-4.667,1.346-5.852c1.504-1.142,3.063-2.891,4.103-5.592  c1.39-3.604,1.61-7.71,1.427-11.672h17.089c3.953,0,7.169-3.216,7.169-7.169V13.284C76.208,9.331,72.992,6.115,69.039,6.115z   M48.877,9.115h20.162c2.299,0,4.169,1.87,4.169,4.169v0.998h-28.5v-0.998C44.708,10.985,46.578,9.115,48.877,9.115z M41.708,37.06  v5.401c-0.488,0.328-1.396,0.972-2.437,1.874c0.255-1.15,0.581-2.307,1.007-3.443C40.651,39.897,41.165,38.52,41.708,37.06z   M38.704,49.223c0.932-1.185,2.009-2.192,2.924-2.95c-0.712,1.969-1.576,4.215-2.595,6.396  C38.809,51.612,38.698,50.454,38.704,49.223z M52.479,49.36c0.891-2.914,1.732-5.668,1.284-8.025  c-0.386-2.033-1.929-3.529-4.025-3.903c-1.878-0.335-3.771,0.331-5.03,1.673V17.282h28.5v41.333H50.929  c-0.029-0.448-0.049-0.876-0.055-1.272C50.835,54.743,51.671,52.007,52.479,49.36z M69.039,66.782H51.742  c-0.12-1.353-0.264-2.669-0.402-3.916c-0.047-0.424-0.092-0.839-0.137-1.251h22.005v0.998  C73.208,64.912,71.338,66.782,69.039,66.782z"/></svg>
