<svg xmlns="http://www.w3.org/2000/svg" xmlns:xlink="http://www.w3.org/1999/xlink" version="1.1" x="0px" y="0px" viewBox="216 105 100 125" enable-background="new 216 105 100 100" xml:space="preserve"><path fill="#000000" d="M303.069,125.731c-0.027-0.202-0.141-0.383-0.311-0.496c-0.17-0.112-0.384-0.146-0.577-0.093l-19.885,5.407  c-0.208,0.056-0.378,0.203-0.464,0.4l-17.954,41.212l-2.027-5.503c-0.018-0.049-0.041-0.096-0.069-0.139l-8.967-13.907l5.175-4.479  c0.092-0.08,0.162-0.182,0.203-0.296l1.484-4.125c0.056-0.101,0.096-0.211,0.096-0.335c0-0.153-0.049-0.295-0.131-0.411  l-7.995-19.502c-0.096-0.235-0.311-0.4-0.562-0.434c-0.25-0.04-0.502,0.069-0.656,0.271l-5.812,7.586l-14.154,7.827  c-0.195,0.107-0.328,0.301-0.359,0.521l-0.738,5.244c-0.046,0.332,0.146,0.651,0.461,0.765l7.062,2.556l-5.365,14.748  c-0.004,0.012,0,0.023-0.003,0.035c-0.033,0.105-0.048,0.215-0.029,0.324c0,0.001,0,0.002,0.001,0.003  c0.015,0.089,0.047,0.177,0.098,0.258c0.008,0.013,0.023,0.018,0.032,0.03c0.009,0.012,0.008,0.027,0.018,0.039  c0.042,0.051,0.099,0.082,0.151,0.119c0.027,0.02,0.049,0.047,0.079,0.062c0.099,0.051,0.206,0.081,0.319,0.081h0.001l0,0h0.001  c0.034,0,0.066-0.003,0.1-0.008l4.271-0.619l-1.388,9.003c-0.023,0.153,0.004,0.311,0.077,0.447l7.795,14.334  c0.008,0.015,0.023,0.02,0.032,0.033c0.052,0.082,0.118,0.149,0.198,0.204c0.024,0.017,0.046,0.033,0.072,0.046  c0.098,0.051,0.203,0.087,0.319,0.087c0.001,0,0.001,0,0.002,0l0,0l0,0c0.013,0,0.025-0.001,0.038-0.001l30.753-1.699  c0.087-0.005,0.168-0.028,0.245-0.062c0.018-0.008,0.032-0.021,0.05-0.03c0.068-0.038,0.129-0.085,0.182-0.142  c0.01-0.012,0.024-0.016,0.034-0.027l30.776-37.887c0.124-0.152,0.179-0.349,0.152-0.542L303.069,125.731z M235.392,161.612  l13.661-8.607v6.626L235.392,161.612z M250.471,152.721l0.95,0.344l7.567,11.737l-8.518-4.966V152.721z M250.805,125.145  l6.472,15.789l-11.217-9.597L250.805,125.145z M231.458,139.786l13.544-7.49l13.21,11.303l-1.289,3.586l-5.186,4.487l-20.888-7.562  L231.458,139.786z M248.168,151.887l-14.605,9.203l4.657-12.805L248.168,151.887z M238.027,162.662l11.592-1.682l10.991,6.408  l2.418,6.564c0.01,0.026,0.027,0.047,0.04,0.071l-1.243,2.854l-11.624-6.398c-0.175-0.096-0.385-0.115-0.573-0.049  c-0.188,0.065-0.342,0.208-0.42,0.392l-5.786,13.562l-6.812-12.526L238.027,162.662z M256.208,175.404l-10.859,8.075l4.855-11.38  L256.208,175.404z M244.953,185.539l12.62-9.383l14.341,7.894L244.953,185.539z M274.244,183.715l-11.173-6.15l19.925-45.736  l18.777-5.106l2.681,19.804L274.244,183.715z"/></svg>
