<svg xmlns="http://www.w3.org/2000/svg" xmlns:xlink="http://www.w3.org/1999/xlink" version="1.1" x="0px" y="0px" viewBox="0 0 100 125" enable-background="new 0 0 100 100" xml:space="preserve"><g><g><path fill="#000000" d="M89.082,47.15l-9.279-10.022c-0.05-0.054-0.11-0.096-0.179-0.123L69.523,32.89    c-0.003-0.001-0.006,0-0.009-0.002c-0.001,0-0.001-0.001-0.002-0.002c0,0,0,0-0.001,0c-0.016-0.01-0.032-0.02-0.049-0.028    l-0.001,0c-0.103-0.051-0.225-0.068-0.346-0.035c-0.001,0-0.001,0-0.002,0l-3.973,1.045l-0.557-2.226    c-0.056-0.223-0.256-0.379-0.485-0.379h-7.678l0.135-8.095c0.002-0.134-0.05-0.264-0.144-0.359l-5.985-6.079    c-0.115-0.118-0.274-0.158-0.427-0.136c-0.151-0.022-0.311,0.018-0.427,0.136l-5.985,6.079c-0.094,0.095-0.146,0.225-0.144,0.359    l0.133,8.095h-7.676c-0.229,0-0.43,0.156-0.485,0.379l-0.557,2.227l-3.975-1.046c-0.003-0.001-0.006-0.001-0.009-0.002    c-0.001,0-0.001,0-0.002,0c0,0,0,0-0.001,0c-0.117-0.029-0.238-0.012-0.339,0.039c0,0,0,0-0.001,0    c-0.017,0.008-0.032,0.018-0.048,0.028c0,0-0.001,0.001-0.001,0.001c-0.003,0.001-0.006,0.001-0.009,0.002l-10.1,4.115    c-0.068,0.027-0.129,0.069-0.179,0.123l-9.354,10.1c-0.175,0.189-0.178,0.48-0.006,0.672c0.091,0.103,0.217,0.154,0.345,0.162l0,0    c0.01,0,0.019,0.006,0.028,0.006c0.009,0,0.017-0.008,0.025-0.008c0.048,0.002,0.096,0.005,0.145-0.007l16.542-4.146l5.666,4.676    l3.232,15.373l-3.47,2.668c-0.085,0.065-0.146,0.156-0.176,0.258l-4.582,15.899c-0.067,0.234,0.044,0.483,0.264,0.589    c0.069,0.034,0.144,0.05,0.217,0.05c0.104,0,0.198-0.042,0.283-0.103c0.028-0.012,0.059-0.008,0.085-0.025l12.063-7.903    c0.004-0.002,0.006-0.007,0.01-0.01c0.002-0.001,0.006-0.001,0.008-0.002l2.839-2.04l5.214,5.074c0,0,0,0,0,0l0.005,0.004    c0.018,0.018,0.041,0.025,0.061,0.04c0.031,0.023,0.062,0.049,0.098,0.064c0.062,0.025,0.126,0.038,0.19,0.038    c0.023,0,0.047-0.011,0.07-0.014c0.023,0.003,0.047,0.014,0.07,0.014c0.126,0,0.252-0.047,0.349-0.142l5.219-5.078l2.837,2.039    c0.002,0.001,0.006,0.001,0.008,0.002c0.004,0.003,0.006,0.007,0.01,0.01l12.063,7.903c0.027,0.018,0.059,0.014,0.088,0.026    c0.085,0.06,0.18,0.102,0.282,0.102c0.073,0,0.147-0.016,0.218-0.05c0.219-0.106,0.33-0.354,0.263-0.589l-4.584-15.899    c-0.029-0.102-0.091-0.192-0.176-0.258l-3.468-2.668l3.231-15.371l5.667-4.678l16.542,4.146c0.048,0.012,0.096,0.009,0.143,0.007    c0.009,0,0.017,0.008,0.025,0.008c0.007,0,0.015,0.001,0.02,0c0.276,0,0.5-0.224,0.5-0.5C89.308,47.394,89.219,47.24,89.082,47.15    z M69.474,36.085l1.739,6.444l-2.278-0.899L69.474,36.085z M70.088,34.522l16.361,11.957l-14.088-3.532L70.088,34.522z     M79.145,37.89l5.763,6.224l-11.987-8.76L79.145,37.89z M66.485,43.37l-4.762,22.65L50.431,77.009V32.263h13.278L66.485,43.37z     M69.001,81.075l-9.656-6.326l1.411-5.261L69.001,81.075z M44.448,23.361l5.553-5.639l5.553,5.639l-0.132,7.902H44.578    L44.448,23.361z M36.293,32.263h13.138v44.609L38.278,66.021l-4.764-22.65L36.293,32.263z M39.244,69.488l1.411,5.261    l-9.653,6.324L39.244,69.488z M27.641,42.947L13.55,46.479l16.363-11.958L27.641,42.947z M30.527,36.085l0.54,5.546l-2.278,0.899    L30.527,36.085z M20.856,37.89l6.223-2.536l-11.985,8.758L20.856,37.89z M29.02,43.515l2.766-1.092    c0.208-0.082,0.336-0.292,0.314-0.514l-0.773-7.937l3.291,0.866l-2.101,8.4c-0.019,0.073-0.02,0.15-0.004,0.224l0.747,3.55    L29.02,43.515z M34.092,67.317l2.959-2.275l0.28,1.333c0.021,0.097,0.069,0.186,0.141,0.255l1.523,1.483L30.367,80.24    L34.092,67.317z M41.528,74.142l-1.293-4.821l3.399,3.307L41.528,74.142z M59.764,69.323l-1.292,4.819l-2.105-1.513L59.764,69.323    z M65.908,67.317l3.726,12.923l-8.629-12.125l1.525-1.484c0.071-0.069,0.12-0.158,0.141-0.255l0.28-1.333L65.908,67.317z     M67.483,43.239l-2.1-8.401l3.29-0.866l-0.771,7.937c-0.021,0.222,0.107,0.432,0.314,0.514l2.766,1.092l-4.242,3.5l0.747-3.552    C67.503,43.389,67.502,43.312,67.483,43.239z"/></g></g></svg>
